<mxfile host="app.diagrams.net" modified="2020-08-07T03:17:27.747Z" agent="5.0 (Macintosh; Intel Mac OS X 10_14_6) AppleWebKit/537.36 (KHTML, like Gecko) Chrome/84.0.4147.105 Safari/537.36" etag="oOuBFZ2zPYQB_5wNFy9N" version="13.6.0" type="github">
  <diagram id="thg91QRLBS_3HXi-7ioC" name="Page-1">
    <mxGraphModel dx="946" dy="1721" grid="1" gridSize="10" guides="1" tooltips="1" connect="1" arrows="1" fold="1" page="1" pageScale="1" pageWidth="827" pageHeight="1169" math="0" shadow="0">
      <root>
        <mxCell id="0" />
        <mxCell id="1" parent="0" />
        <mxCell id="gJPN82Q5Aouuk-gxNrWG-4" value="" style="edgeStyle=orthogonalEdgeStyle;rounded=0;orthogonalLoop=1;jettySize=auto;html=1;" edge="1" parent="1" source="gJPN82Q5Aouuk-gxNrWG-2" target="gJPN82Q5Aouuk-gxNrWG-3">
          <mxGeometry relative="1" as="geometry" />
        </mxCell>
        <mxCell id="gJPN82Q5Aouuk-gxNrWG-2" value="" style="rounded=1;whiteSpace=wrap;html=1;" vertex="1" parent="1">
          <mxGeometry x="100" y="-290" width="120" height="60" as="geometry" />
        </mxCell>
        <mxCell id="gJPN82Q5Aouuk-gxNrWG-6" value="" style="edgeStyle=orthogonalEdgeStyle;rounded=0;orthogonalLoop=1;jettySize=auto;html=1;" edge="1" parent="1" source="gJPN82Q5Aouuk-gxNrWG-3" target="gJPN82Q5Aouuk-gxNrWG-5">
          <mxGeometry relative="1" as="geometry" />
        </mxCell>
        <mxCell id="gJPN82Q5Aouuk-gxNrWG-3" value="" style="rounded=1;whiteSpace=wrap;html=1;" vertex="1" parent="1">
          <mxGeometry x="300" y="-290" width="120" height="60" as="geometry" />
        </mxCell>
        <mxCell id="gJPN82Q5Aouuk-gxNrWG-5" value="" style="rounded=1;whiteSpace=wrap;html=1;" vertex="1" parent="1">
          <mxGeometry x="500" y="-290" width="120" height="60" as="geometry" />
        </mxCell>
      </root>
    </mxGraphModel>
  </diagram>
</mxfile>
